<svg width="73" height="74" viewBox="0 0 73 74" fill="none" xmlns="http://www.w3.org/2000/svg">
<path fill-rule="evenodd" clip-rule="evenodd" d="M0.171143 1.38703C0.171143 0.867607 0.567275 0.446533 1.05593 0.446533H71.8388C72.3275 0.446533 72.7236 0.867607 72.7236 1.38703V5.32098C72.7236 5.8404 72.3275 6.26148 71.8388 6.26148H1.05593C0.567275 6.26148 0.171143 5.8404 0.171143 5.32098V1.38703ZM1.94071 2.32752V4.38049H70.954V2.32752H1.94071Z" fill="#2D6A42"/>
<path fill-rule="evenodd" clip-rule="evenodd" d="M3.76083 5.38556C3.76083 4.86614 4.15697 4.44507 4.64562 4.44507H68.2466C68.7352 4.44507 69.1314 4.86614 69.1314 5.38556V52.276C69.1314 52.7954 68.7352 53.2165 68.2466 53.2165H4.64562C4.15697 53.2165 3.76083 52.7954 3.76083 52.276V5.38556ZM5.53041 6.32606V51.3355H67.3618V6.32606H5.53041Z" fill="#2D6A42"/>
<path fill-rule="evenodd" clip-rule="evenodd" d="M3.76083 52.2733C3.76083 51.7538 4.15697 51.3328 4.64562 51.3328H68.2466C68.7352 51.3328 69.1314 51.7538 69.1314 52.2733V62.4387C69.1314 62.9581 68.7352 63.3792 68.2466 63.3792H4.64562C4.15697 63.3792 3.76083 62.9581 3.76083 62.4387V52.2733ZM5.53041 53.2138V61.4982H67.3618V53.2138H5.53041Z" fill="#2D6A42"/>
<path fill-rule="evenodd" clip-rule="evenodd" d="M3.91504 5.38556C3.91504 4.86614 4.31117 4.44507 4.79983 4.44507H68.2491C68.7378 4.44507 69.1339 4.86614 69.1339 5.38556V15.551C69.1339 16.0704 68.7378 16.4915 68.2491 16.4915H4.79983C4.31117 16.4915 3.91504 16.0704 3.91504 15.551V5.38556ZM5.68461 6.32606V14.6105H67.3643V6.32606H5.68461Z" fill="#2D6A42"/>
<path fill-rule="evenodd" clip-rule="evenodd" d="M4.01668 61.777C4.18287 61.5985 4.40934 61.498 4.64562 61.498H12.2042C12.469 61.498 12.7198 61.6241 12.8879 61.8415C13.0559 62.0589 13.1236 62.345 13.0722 62.621L11.1813 72.7837C11.0993 73.2243 10.7358 73.5418 10.3133 73.5418H4.74674C4.26173 73.5418 3.86713 73.1267 3.862 72.6112L3.76088 62.4485C3.75838 62.1973 3.85049 61.9556 4.01668 61.777ZM5.53981 63.379L5.62222 71.6608H9.58638L11.1273 63.379H5.53981Z" fill="#2D6A42"/>
<path fill-rule="evenodd" clip-rule="evenodd" d="M60.0069 61.8415C60.1749 61.6241 60.4258 61.498 60.6905 61.498H68.2491C68.4854 61.498 68.7119 61.5985 68.8781 61.777C69.0442 61.9556 69.1364 62.1973 69.1339 62.4485L69.0327 72.6112C69.0276 73.1267 68.633 73.5418 68.148 73.5418H62.5814C62.159 73.5418 61.7954 73.2243 61.7135 72.7837L59.8225 62.621C59.7712 62.345 59.8388 62.0589 60.0069 61.8415ZM61.7674 63.379L63.3084 71.6608H67.2725L67.3549 63.379H61.7674Z" fill="#2D6A42"/>
<path fill-rule="evenodd" clip-rule="evenodd" d="M36.4473 51.3328C36.936 51.3328 37.3321 51.7538 37.3321 52.2733V62.4387C37.3321 62.9581 36.936 63.3792 36.4473 63.3792C35.9587 63.3792 35.5626 62.9581 35.5626 62.4387V52.2733C35.5626 51.7538 35.9587 51.3328 36.4473 51.3328Z" fill="#2D6A42"/>
<path fill-rule="evenodd" clip-rule="evenodd" d="M36.599 4.44507C37.0877 4.44507 37.4838 4.86614 37.4838 5.38556V51.889C37.4838 52.4084 37.0877 52.8295 36.599 52.8295C36.1104 52.8295 35.7142 52.4084 35.7142 51.889V5.38556C35.7142 4.86614 36.1104 4.44507 36.599 4.44507Z" fill="#2D6A42"/>
<path fill-rule="evenodd" clip-rule="evenodd" d="M16.7394 57.3546C16.7394 56.8351 17.1355 56.4141 17.6242 56.4141H23.0466C23.5353 56.4141 23.9314 56.8351 23.9314 57.3546C23.9314 57.874 23.5353 58.2951 23.0466 58.2951H17.6242C17.1355 58.2951 16.7394 57.874 16.7394 57.3546Z" fill="#2D6A42"/>
<path fill-rule="evenodd" clip-rule="evenodd" d="M16.7394 10.0286C16.7394 9.50921 17.1355 9.08813 17.6242 9.08813H23.0466C23.5353 9.08813 23.9314 9.50921 23.9314 10.0286C23.9314 10.5481 23.5353 10.9691 23.0466 10.9691H17.6242C17.1355 10.9691 16.7394 10.5481 16.7394 10.0286Z" fill="#2D6A42"/>
<path fill-rule="evenodd" clip-rule="evenodd" d="M48.9633 57.3546C48.9633 56.8351 49.3595 56.4141 49.8481 56.4141H55.2706C55.7592 56.4141 56.1554 56.8351 56.1554 57.3546C56.1554 57.874 55.7592 58.2951 55.2706 58.2951H49.8481C49.3595 58.2951 48.9633 57.874 48.9633 57.3546Z" fill="#2D6A42"/>
<path fill-rule="evenodd" clip-rule="evenodd" d="M48.9633 10.0286C48.9633 9.50921 49.3595 9.08813 49.8481 9.08813H55.2706C55.7592 9.08813 56.1554 9.50921 56.1554 10.0286C56.1554 10.5481 55.7592 10.9691 55.2706 10.9691H49.8481C49.3595 10.9691 48.9633 10.5481 48.9633 10.0286Z" fill="#2D6A42"/>
<path fill-rule="evenodd" clip-rule="evenodd" d="M31.5381 26.3906C31.5381 25.8711 31.9342 25.4501 32.4229 25.4501H40.7778C41.2664 25.4501 41.6626 25.8711 41.6626 26.3906V39.7725C41.6626 40.2919 41.2664 40.713 40.7778 40.713H32.4229C31.9342 40.713 31.5381 40.2919 31.5381 39.7725V26.3906ZM33.3077 27.3311V38.832H39.893V27.3311H33.3077Z" fill="#2D6A42"/>
</svg>
