<svg width="71" height="71" viewBox="0 0 71 71" fill="none" xmlns="http://www.w3.org/2000/svg">
<path d="M62.7166 16.5667V0H8.28331V16.5667H7.09998V71H63.9V16.5667H62.7166ZM59.7583 16.5667L53.6286 8.39457L59.6565 2.36667H60.35V16.5667H59.7583ZM20.1166 16.5667V8.28333C20.1166 8.25493 20.1024 8.2289 20.1001 8.2005C20.0942 8.12477 20.0764 8.05377 20.0575 7.97922C20.0445 7.92952 20.0456 7.87863 20.0255 7.8313C20.0149 7.80527 19.9936 7.78515 19.9817 7.75912C19.9498 7.69403 19.9048 7.63842 19.8599 7.57925C19.8267 7.53665 19.8078 7.4834 19.7687 7.44553L14.6899 2.36667H56.3101L51.2312 7.44553C51.1933 7.4834 51.1732 7.53665 51.1401 7.57925C51.0951 7.63842 51.0513 7.69403 51.0194 7.75912C51.0064 7.78515 50.9863 7.80408 50.9744 7.8313C50.9543 7.87863 50.9555 7.9307 50.9425 7.97922C50.9224 8.05377 50.9046 8.12358 50.8999 8.2005C50.8975 8.2289 50.8833 8.25493 50.8833 8.28333V16.5667H20.1166ZM14.2 16.5667L17.75 11.8321V16.5667H14.2ZM53.25 11.8321L56.8 16.5667H53.25V11.8321ZM10.65 2.36667H11.3434L17.3713 8.39457L11.2416 16.5667H10.65V2.36667ZM61.5333 68.6333H9.46664V18.9333H61.5333V68.6333Z" fill="#2D6A42"/>
</svg>
